<svg xmlns="http://www.w3.org/2000/svg" viewBox="0 0 1600 1100">
  <defs>
    <linearGradient id="bg" x1="0" y1="0" x2="1" y2="1">
      <stop offset="0%" stop-color="#121216"/>
      <stop offset="100%" stop-color="#3a2b1c"/>
    </linearGradient>
    <linearGradient id="glass" x1="0" y1="0" x2="0" y2="1">
      <stop offset="0%" stop-color="#f7dba8" stop-opacity="0.8"/>
      <stop offset="100%" stop-color="#b7854e" stop-opacity="0.2"/>
    </linearGradient>
  </defs>
  <rect width="1600" height="1100" fill="url(#bg)"/>
  <rect y="760" width="1600" height="340" fill="#0d0f12"/>
  <rect x="140" y="220" width="1320" height="520" rx="26" fill="#171a1f" stroke="#7e613c" stroke-width="4"/>
  <rect x="220" y="280" width="1160" height="320" rx="18" fill="#121418"/>
  <g opacity="0.92">
    <rect x="250" y="310" width="180" height="250" rx="12" fill="url(#glass)"/>
    <rect x="460" y="310" width="180" height="250" rx="12" fill="url(#glass)"/>
    <rect x="670" y="310" width="180" height="250" rx="12" fill="url(#glass)"/>
    <rect x="880" y="310" width="180" height="250" rx="12" fill="url(#glass)"/>
    <rect x="1090" y="310" width="180" height="250" rx="12" fill="url(#glass)"/>
  </g>
  <rect x="360" y="680" width="880" height="36" rx="18" fill="#1d232b"/>
  <rect x="540" y="810" width="520" height="120" rx="60" fill="#1e8f83" opacity="0.7"/>
  <ellipse cx="800" cy="870" rx="330" ry="92" fill="#4ed2c5" opacity="0.18"/>
  <circle cx="260" cy="860" r="80" fill="#1b2422"/>
  <circle cx="1360" cy="850" r="92" fill="#1b2422"/>
  <rect x="620" y="120" width="360" height="52" rx="14" fill="#0f1115" stroke="#d8b27a" stroke-width="2"/>
  <text x="800" y="154" font-family="Inter,Arial,sans-serif" font-size="28" text-anchor="middle" fill="#f5ddaf">SPINTEX SUITES</text>
</svg>